{
	"asset":{
		"generator":"Khronos glTF Blender I/O v5.0.21",
		"version":"2.0"
	},
	"extensionsUsed":[
		"KHR_materials_clearcoat",
		"KHR_materials_specular",
		"KHR_materials_ior"
	],
	"scene":0,
	"scenes":[
		{
			"name":"Scene",
			"nodes":[
				71
			]
		}
	],
	"nodes":[
		{
			"name":"mixamorig:HeadTop_End",
			"rotation":[
				-1.7763568394002505e-15,
				0,
				0,
				1
			],
			"scale":[
				1,
				0.9999999403953552,
				1
			],
			"translation":[
				0,
				8.21954345703125,
				3.0917537212371826
			]
		},
		{
			"children":[
				0
			],
			"name":"mixamorig:Head",
			"rotation":[
				-6.7873071607493785e-09,
				0,
				0,
				1
			],
			"scale":[
				1,
				0.9999999403953552,
				1
			],
			"translation":[
				0,
				2.0450820922851562,
				0.7692515850067139
			]
		},
		{
			"children":[
				1
			],
			"name":"mixamorig:Neck",
			"rotation":[
				0.06350331753492355,
				0,
				0,
				0.9979816675186157
			],
			"scale":[
				1,
				0.9999997615814209,
				0.9999998211860657
			],
			"translation":[
				-1.4901161193847656e-08,
				5.529537677764893,
				-3.2782554626464844e-07
			]
		},
		{
			"name":"mixamorig:LeftHandThumb4",
			"rotation":[
				-9.872019290924072e-08,
				-1.0989607091005382e-07,
				-3.837049291632866e-07,
				1
			],
			"scale":[
				0.9999999403953552,
				1,
				1
			],
			"translation":[
				0.13764023780822754,
				1.4024157524108887,
				-4.76837158203125e-07
			]
		},
		{
			"children":[
				3
			],
			"name":"mixamorig:LeftHandThumb3",
			"rotation":[
				-0.04507628455758095,
				-4.26979710255182e-07,
				4.176570200797869e-07,
				0.9989835619926453
			],
			"scale":[
				1,
				1,
				1.0000001192092896
			],
			"translation":[
				0.07850027084350586,
				1.628953456878662,
				-2.384185791015625e-06
			]
		},
		{
			"children":[
				4
			],
			"name":"mixamorig:LeftHandThumb2",
			"rotation":[
				0.08332427591085434,
				4.5326768827180786e-07,
				-6.635465155113707e-08,
				0.9965225458145142
			],
			"translation":[
				-0.2161388397216797,
				1.6620900630950928,
				-1.1920928955078125e-06
			]
		},
		{
			"children":[
				5
			],
			"name":"mixamorig:LeftHandThumb1",
			"rotation":[
				0.2749547064304352,
				0.05203735828399658,
				0.1785276234149933,
				0.9433026909828186
			],
			"scale":[
				0.9999998211860657,
				0.9999998807907104,
				0.9999999403953552
			],
			"translation":[
				-0.891798734664917,
				1.5323148965835571,
				1.1163251399993896
			]
		},
		{
			"name":"mixamorig:LeftHandIndex4",
			"rotation":[
				1.4435501682896756e-08,
				-6.33299421792799e-08,
				3.725290742551124e-09,
				1
			],
			"scale":[
				0.9999999403953552,
				0.9999999403953552,
				0.9999999403953552
			],
			"translation":[
				-0.0018911361694335938,
				1.0602803230285645,
				1.7881393432617188e-07
			]
		},
		{
			"children":[
				7
			],
			"name":"mixamorig:LeftHandIndex3",
			"rotation":[
				-0.022577378898859024,
				1.5547739167232066e-06,
				6.055140744365417e-08,
				0.9997450709342957
			],
			"scale":[
				1,
				0.9999999403953552,
				0.9999998211860657
			],
			"translation":[
				-0.004951000213623047,
				1.328524112701416,
				-1.1920928955078125e-07
			]
		},
		{
			"children":[
				8
			],
			"name":"mixamorig:LeftHandIndex2",
			"rotation":[
				0.1065710112452507,
				-1.0457772532390663e-06,
				4.58961793015078e-08,
				0.9943051338195801
			],
			"translation":[
				0.006843090057373047,
				1.3729217052459717,
				-5.364418029785156e-07
			]
		},
		{
			"children":[
				9
			],
			"name":"mixamorig:LeftHandIndex1",
			"rotation":[
				-0.0407010018825531,
				-0.0026396741159260273,
				0.06466816365718842,
				0.9970729947090149
			],
			"scale":[
				1,
				0.9999998211860657,
				1
			],
			"translation":[
				-1.4680688381195068,
				5.359296798706055,
				0.16772398352622986
			]
		},
		{
			"name":"mixamorig:LeftHandMiddle4",
			"rotation":[
				-3.1082890927791595e-08,
				1.1641532182693481e-08,
				-3.725290298461914e-09,
				1
			],
			"translation":[
				0.003321409225463867,
				0.7298345565795898,
				-2.2351741790771484e-07
			]
		},
		{
			"children":[
				11
			],
			"name":"mixamorig:LeftHandMiddle3",
			"rotation":[
				-0.1242407038807869,
				2.0860267113675945e-07,
				5.6784976720791747e-08,
				0.9922521114349365
			],
			"scale":[
				1,
				1,
				0.9999999403953552
			],
			"translation":[
				-0.0032019615173339844,
				1.076530933380127,
				3.725290298461914e-06
			]
		},
		{
			"children":[
				12
			],
			"name":"mixamorig:LeftHandMiddle2",
			"rotation":[
				0.0476808175444603,
				-7.673512527617277e-07,
				-1.2027742002373998e-07,
				0.998862624168396
			],
			"scale":[
				1.0000001192092896,
				0.9999998211860657,
				0.9999999403953552
			],
			"translation":[
				-0.00011754035949707031,
				1.1339983940124512,
				-2.3990869522094727e-06
			]
		},
		{
			"children":[
				13
			],
			"name":"mixamorig:LeftHandMiddle1",
			"rotation":[
				0.0393415242433548,
				0.0003702404210343957,
				0.009378333576023579,
				0.9991817474365234
			],
			"scale":[
				0.9999999403953552,
				0.9999998807907104,
				0.9999999403953552
			],
			"translation":[
				-0.4206409454345703,
				6.429851055145264,
				-0.14755338430404663
			]
		},
		{
			"name":"mixamorig:LeftHandRing4",
			"rotation":[
				-3.259629011154175e-09,
				3.259629011154175e-08,
				-1.210719347000122e-08,
				1
			],
			"translation":[
				-0.0015763044357299805,
				0.7545362114906311,
				5.066394805908203e-07
			]
		},
		{
			"children":[
				15
			],
			"name":"mixamorig:LeftHandRing3",
			"rotation":[
				-0.002006751485168934,
				2.647755536600016e-06,
				-1.769516444483088e-08,
				0.9999979734420776
			],
			"scale":[
				0.9999999403953552,
				1,
				1
			],
			"translation":[
				-0.0014122724533081055,
				0.9484080076217651,
				4.634261131286621e-06
			]
		},
		{
			"children":[
				16
			],
			"name":"mixamorig:LeftHandRing2",
			"rotation":[
				0.07125917822122574,
				-1.6638466604490532e-06,
				-1.685321677769025e-07,
				0.9974578619003296
			],
			"scale":[
				0.9999999403953552,
				0.9999999403953552,
				0.9999998807907104
			],
			"translation":[
				0.0029871463775634766,
				1.0182483196258545,
				-3.978610038757324e-06
			]
		},
		{
			"children":[
				17
			],
			"name":"mixamorig:LeftHandRing1",
			"rotation":[
				0.0425267331302166,
				-0.0021358290687203407,
				-0.05008799582719803,
				0.9978367686271667
			],
			"scale":[
				0.9999999403953552,
				0.9999998807907104,
				0.9999999403953552
			],
			"translation":[
				0.4670233726501465,
				6.342218399047852,
				-0.02894984558224678
			]
		},
		{
			"name":"mixamorig:LeftHandPinky4",
			"rotation":[
				3.3178362279784324e-09,
				6.984919309616089e-10,
				3.725290298461914e-09,
				1
			],
			"scale":[
				1,
				1,
				1.0000001192092896
			],
			"translation":[
				-0.001378178596496582,
				0.7169945240020752,
				1.214444637298584e-06
			]
		},
		{
			"children":[
				19
			],
			"name":"mixamorig:LeftHandPinky3",
			"rotation":[
				0.056055568158626556,
				1.5087869087437866e-06,
				7.87041045668957e-08,
				0.9984276294708252
			],
			"scale":[
				0.9999998807907104,
				0.9999998807907104,
				0.9999998807907104
			],
			"translation":[
				0.00018996000289916992,
				0.9260133504867554,
				-4.6938657760620117e-07
			]
		},
		{
			"children":[
				20
			],
			"name":"mixamorig:LeftHandPinky2",
			"rotation":[
				0.023679403588175774,
				9.176100945751386e-08,
				-5.449766149467905e-08,
				0.9997196197509766
			],
			"scale":[
				0.9999998807907104,
				0.9999999403953552,
				1
			],
			"translation":[
				0.0011887550354003906,
				0.9658113718032837,
				8.977949619293213e-07
			]
		},
		{
			"children":[
				21
			],
			"name":"mixamorig:LeftHandPinky1",
			"rotation":[
				0.047078751027584076,
				-0.004022952634841204,
				-0.08504561334848404,
				0.9952561259269714
			],
			"scale":[
				1,
				0.9999997019767761,
				0.9999999403953552
			],
			"translation":[
				1.421682357788086,
				5.592618465423584,
				0.05327007547020912
			]
		},
		{
			"children":[
				6,
				10,
				14,
				18,
				22
			],
			"name":"mixamorig:LeftHand",
			"rotation":[
				0.052099764347076416,
				-0.025151880457997322,
				0.00220071105286479,
				0.9983226656913757
			],
			"translation":[
				-2.1457672119140625e-06,
				8.885763168334961,
				-3.889203071594238e-06
			]
		},
		{
			"children":[
				23
			],
			"name":"mixamorig:LeftForeArm",
			"rotation":[
				0.015987688675522804,
				0.0023082152474671602,
				0.14287583529949188,
				0.9896088242530823
			],
			"scale":[
				1.0000001192092896,
				1,
				1
			],
			"translation":[
				7.450580596923828e-08,
				9.193708419799805,
				-7.366761565208435e-07
			]
		},
		{
			"children":[
				24
			],
			"name":"mixamorig:LeftArm",
			"rotation":[
				0.3228791058063507,
				0.07545866072177887,
				-0.025834742933511734,
				0.9430735111236572
			],
			"scale":[
				0.9999999403953552,
				1,
				0.9999998807907104
			],
			"translation":[
				5.066394805908203e-07,
				5.465027332305908,
				5.453824996948242e-06
			]
		},
		{
			"children":[
				25
			],
			"name":"mixamorig:LeftShoulder",
			"rotation":[
				0.5695464015007019,
				0.40908363461494446,
				-0.5961580872535706,
				0.39097702503204346
			],
			"scale":[
				0.9999999403953552,
				0.9999999403953552,
				0.9999998211860657
			],
			"translation":[
				2.5012340545654297,
				4.555380344390869,
				-0.11478221416473389
			]
		},
		{
			"name":"mixamorig:RightHandThumb4",
			"rotation":[
				5.587935447692871e-09,
				1.8626447051417472e-09,
				3.91155481338501e-08,
				1
			],
			"scale":[
				0.9999999403953552,
				1,
				1
			],
			"translation":[
				-0.1143331527709961,
				1.4221773147583008,
				-3.5762786865234375e-07
			]
		},
		{
			"children":[
				27
			],
			"name":"mixamorig:RightHandThumb3",
			"rotation":[
				-0.09521496295928955,
				7.147777978389058e-07,
				2.675739096957841e-07,
				0.9954567551612854
			],
			"scale":[
				1,
				0.9999999403953552,
				1
			],
			"translation":[
				-0.05202174186706543,
				1.668005108833313,
				7.152557373046875e-07
			]
		},
		{
			"children":[
				28
			],
			"name":"mixamorig:RightHandThumb2",
			"rotation":[
				0.07325755804777145,
				-2.558699065957626e-07,
				-6.723588796830882e-08,
				0.9973130226135254
			],
			"scale":[
				1,
				0.9999998807907104,
				0.9999998807907104
			],
			"translation":[
				0.16635632514953613,
				1.6658326387405396,
				1.1920928955078125e-07
			]
		},
		{
			"children":[
				29
			],
			"name":"mixamorig:RightHandThumb1",
			"rotation":[
				0.2891312837600708,
				-0.056775450706481934,
				-0.18413175642490387,
				0.9376966953277588
			],
			"scale":[
				1,
				1.0000001192092896,
				1.000000238418579
			],
			"translation":[
				0.8431965112686157,
				1.5143158435821533,
				1.1726315021514893
			]
		},
		{
			"name":"mixamorig:RightHandIndex4",
			"rotation":[
				3.725290298461914e-09,
				6.984919309616089e-08,
				-3.050081431865692e-08,
				1
			],
			"scale":[
				1.0000001192092896,
				1,
				0.9999998807907104
			],
			"translation":[
				0.010071039199829102,
				1.1605771780014038,
				1.0728836059570312e-06
			]
		},
		{
			"children":[
				31
			],
			"name":"mixamorig:RightHandIndex3",
			"rotation":[
				0.10309180617332458,
				-1.5683216361139785e-06,
				-8.894957659322245e-09,
				0.9946718215942383
			],
			"scale":[
				1,
				1,
				0.9999998807907104
			],
			"translation":[
				-2.8848648071289062e-05,
				1.359933614730835,
				-1.1920928955078125e-06
			]
		},
		{
			"children":[
				32
			],
			"name":"mixamorig:RightHandIndex2",
			"rotation":[
				0.08391199260950089,
				8.986360171547858e-07,
				-6.168484389945661e-08,
				0.9964731931686401
			],
			"translation":[
				-0.010040760040283203,
				1.4097648859024048,
				-2.421438694000244e-07
			]
		},
		{
			"children":[
				33
			],
			"name":"mixamorig:RightHandIndex1",
			"rotation":[
				-0.0686114951968193,
				0.004539616871625185,
				-0.06586576998233795,
				0.9954564571380615
			],
			"scale":[
				1,
				1.0000001192092896,
				1.0000001192092896
			],
			"translation":[
				1.5170166492462158,
				5.065059185028076,
				0.22075103223323822
			]
		},
		{
			"name":"mixamorig:RightHandMiddle4",
			"rotation":[
				-1.25728565336658e-08,
				9.313225746154785e-10,
				-7.450581485102248e-09,
				1
			],
			"scale":[
				0.9999998807907104,
				0.9999998807907104,
				0.9999998807907104
			],
			"translation":[
				0.0003712177276611328,
				0.8067914247512817,
				3.248453140258789e-06
			]
		},
		{
			"children":[
				35
			],
			"name":"mixamorig:RightHandMiddle3",
			"rotation":[
				-0.013956517912447453,
				5.30905651885405e-07,
				-2.5008449711094727e-07,
				0.999902606010437
			],
			"scale":[
				0.9999999403953552,
				0.9999999403953552,
				0.9999998807907104
			],
			"translation":[
				0.001886606216430664,
				1.0174931287765503,
				6.854534149169922e-07
			]
		},
		{
			"children":[
				36
			],
			"name":"mixamorig:RightHandMiddle2",
			"rotation":[
				0.05108983814716339,
				1.7391879509887076e-06,
				2.191469832268922e-07,
				0.9986940622329712
			],
			"scale":[
				1,
				0.9999998807907104,
				0.9999998807907104
			],
			"translation":[
				-0.0022563934326171875,
				1.0721684694290161,
				-1.2516975402832031e-06
			]
		},
		{
			"children":[
				37
			],
			"name":"mixamorig:RightHandMiddle1",
			"rotation":[
				0.007717798464000225,
				-3.6818561056861654e-05,
				-0.0047890376299619675,
				0.9999587535858154
			],
			"translation":[
				0.5134081840515137,
				6.487682819366455,
				-0.1375744491815567
			]
		},
		{
			"name":"mixamorig:RightHandRing4",
			"rotation":[
				-3.0267981454557003e-09,
				-1.2095550516733056e-07,
				-9.866198524832726e-09,
				1
			],
			"scale":[
				1.0000001192092896,
				1,
				1.0000001192092896
			],
			"translation":[
				0.005680084228515625,
				0.6476402282714844,
				-1.3634562492370605e-06
			]
		},
		{
			"children":[
				39
			],
			"name":"mixamorig:RightHandRing3",
			"rotation":[
				0.06412357836961746,
				-1.6213643050377868e-07,
				-1.8460718820278998e-07,
				0.9979419708251953
			],
			"scale":[
				1,
				1.0000001192092896,
				1
			],
			"translation":[
				0.003054976463317871,
				0.7984639406204224,
				2.6226043701171875e-06
			]
		},
		{
			"children":[
				40
			],
			"name":"mixamorig:RightHandRing2",
			"rotation":[
				0.1282145380973816,
				-1.288408611799241e-06,
				-4.014539811691975e-08,
				0.9917464852333069
			],
			"scale":[
				0.9999999403953552,
				1,
				0.9999999403953552
			],
			"translation":[
				-0.008735299110412598,
				0.9693869948387146,
				-2.4437904357910156e-06
			]
		},
		{
			"children":[
				41
			],
			"name":"mixamorig:RightHandRing1",
			"rotation":[
				-0.024369563907384872,
				-0.0006946492358110845,
				0.028507238253951073,
				0.999296247959137
			],
			"scale":[
				1,
				1.0000001192092896,
				1
			],
			"translation":[
				-0.48942065238952637,
				6.5274810791015625,
				0.07173888385295868
			]
		},
		{
			"name":"mixamorig:RightHandPinky4",
			"rotation":[
				-5.587935891782081e-09,
				1.3737007975578308e-07,
				2.3283064365386963e-09,
				1
			],
			"scale":[
				1,
				1,
				0.9999998807907104
			],
			"translation":[
				0.0036231279373168945,
				0.816034197807312,
				2.518296241760254e-06
			]
		},
		{
			"children":[
				43
			],
			"name":"mixamorig:RightHandPinky3",
			"rotation":[
				0.037992965430021286,
				1.6114204299810808e-06,
				1.244214189455306e-07,
				0.9992780089378357
			],
			"scale":[
				0.9999998211860657,
				0.9999997019767761,
				1
			],
			"translation":[
				0.0014090538024902344,
				0.9612163305282593,
				-1.7136335372924805e-06
			]
		},
		{
			"children":[
				44
			],
			"name":"mixamorig:RightHandPinky2",
			"rotation":[
				0.06954679638147354,
				-6.525746130137122e-07,
				4.784613594210896e-08,
				0.9975787401199341
			],
			"scale":[
				1,
				0.9999998807907104,
				0.9999998211860657
			],
			"translation":[
				-0.005032181739807129,
				1.2206976413726807,
				-3.650784492492676e-07
			]
		},
		{
			"children":[
				45
			],
			"name":"mixamorig:RightHandPinky1",
			"rotation":[
				0.0010886990930885077,
				4.890713171334937e-05,
				0.04432252049446106,
				0.9990167021751404
			],
			"scale":[
				1,
				1,
				1.0000001192092896
			],
			"translation":[
				-1.5410059690475464,
				5.18110990524292,
				0.08577979356050491
			]
		},
		{
			"children":[
				30,
				34,
				38,
				42,
				46
			],
			"name":"mixamorig:RightHand",
			"rotation":[
				0.08755603432655334,
				0.02583947964012623,
				0.0046824440360069275,
				0.9958134293556213
			],
			"scale":[
				1,
				1.0000001192092896,
				1
			],
			"translation":[
				2.384185791015625e-07,
				8.843948364257812,
				5.759298801422119e-06
			]
		},
		{
			"children":[
				47
			],
			"name":"mixamorig:RightForeArm",
			"rotation":[
				0.01341326255351305,
				-0.0019788676872849464,
				-0.14593127369880676,
				0.9892018437385559
			],
			"scale":[
				1,
				0.9999998807907104,
				0.9999998807907104
			],
			"translation":[
				3.7439167499542236e-07,
				9.198756217956543,
				1.9642175175249577e-06
			]
		},
		{
			"children":[
				48
			],
			"name":"mixamorig:RightArm",
			"rotation":[
				0.32264000177383423,
				-0.0901857390999794,
				0.03089870698750019,
				0.9417086839675903
			],
			"scale":[
				0.9999999403953552,
				1,
				1
			],
			"translation":[
				-2.980232238769531e-07,
				5.465027809143066,
				3.1776726245880127e-06
			]
		},
		{
			"children":[
				49
			],
			"name":"mixamorig:RightShoulder",
			"rotation":[
				0.5671086311340332,
				-0.4108148217201233,
				0.59810471534729,
				0.3897304832935333
			],
			"scale":[
				0.9999998807907104,
				0.9999998807907104,
				0.9999998211860657
			],
			"translation":[
				-2.5012340545654297,
				4.557818412780762,
				-0.13386490941047668
			]
		},
		{
			"children":[
				2,
				26,
				50
			],
			"name":"mixamorig:Spine2",
			"rotation":[
				-1.4901162970204496e-08,
				0,
				0,
				1
			],
			"scale":[
				1,
				0.9999998807907104,
				0.9999998807907104
			],
			"translation":[
				-1.4901161193847656e-08,
				4.915151596069336,
				3.5762786865234375e-07
			]
		},
		{
			"children":[
				51
			],
			"name":"mixamorig:Spine1",
			"rotation":[
				2.980232594040899e-08,
				0,
				0,
				1
			],
			"scale":[
				1,
				0.9999998807907104,
				0.9999998807907104
			],
			"translation":[
				-7.450580596923828e-09,
				4.300751209259033,
				-8.344650268554688e-07
			]
		},
		{
			"children":[
				52
			],
			"name":"mixamorig:Spine",
			"rotation":[
				-0.06350331753492355,
				0,
				0,
				0.9979816675186157
			],
			"scale":[
				1,
				1,
				0.9999999403953552
			],
			"translation":[
				0,
				3.656623601913452,
				-0.46724769473075867
			]
		},
		{
			"name":"mixamorig:LeftToe_End",
			"rotation":[
				3.841705620288849e-08,
				1.734006218612194e-07,
				-7.4069248512387276e-09,
				1
			],
			"scale":[
				1,
				0.9999998807907104,
				1.0000001192092896
			],
			"translation":[
				7.310882210731506e-08,
				2.9288485050201416,
				2.9802322387695312e-08
			]
		},
		{
			"children":[
				54
			],
			"name":"mixamorig:LeftToeBase",
			"rotation":[
				0.3097297251224518,
				-0.03452940285205841,
				0.011256037279963493,
				0.950130820274353
			],
			"scale":[
				1.0000001192092896,
				0.9999998807907104,
				0.9999999403953552
			],
			"translation":[
				-4.6659260988235474e-07,
				6.863418102264404,
				-4.079192876815796e-07
			]
		},
		{
			"children":[
				55
			],
			"name":"mixamorig:LeftFoot",
			"rotation":[
				0.4888572096824646,
				-0.011401819065213203,
				0.00638999417424202,
				0.8722658753395081
			],
			"scale":[
				1,
				0.9999998807907104,
				1
			],
			"translation":[
				2.0078732632100582e-07,
				14.940984725952148,
				2.60770320892334e-07
			]
		},
		{
			"children":[
				56
			],
			"name":"mixamorig:LeftLeg",
			"rotation":[
				-0.02236403524875641,
				0.0003527113876771182,
				-0.016036804765462875,
				0.9996212124824524
			],
			"scale":[
				0.9999999403953552,
				0.9999998807907104,
				1.0000001192092896
			],
			"translation":[
				6.360933184623718e-07,
				16.420530319213867,
				2.0525476429611444e-07
			]
		},
		{
			"children":[
				57
			],
			"name":"mixamorig:LeftUpLeg",
			"rotation":[
				0.0008169144857674837,
				0.029409203678369522,
				-0.9991865754127502,
				0.0275784432888031
			],
			"scale":[
				1.0000048875808716,
				1,
				1.0000056028366089
			],
			"translation":[
				3.5235214233398438,
				-2.0741732120513916,
				-0.023739509284496307
			]
		},
		{
			"name":"mixamorig:RightToe_End",
			"rotation":[
				8.207281965155744e-09,
				-1.688895423512804e-07,
				-9.953511792559766e-09,
				1
			],
			"scale":[
				0.9999999403953552,
				0.9999998211860657,
				0.9999999403953552
			],
			"translation":[
				-5.131587386131287e-07,
				2.9075896739959717,
				2.9802322387695312e-08
			]
		},
		{
			"children":[
				59
			],
			"name":"mixamorig:RightToeBase",
			"rotation":[
				0.31103456020355225,
				0.03448997437953949,
				-0.011295624077320099,
				0.9497054219245911
			],
			"scale":[
				0.9999999403953552,
				1.0000001192092896,
				0.9999998807907104
			],
			"translation":[
				-1.3550743460655212e-07,
				6.837445259094238,
				-3.4458935260772705e-07
			]
		},
		{
			"children":[
				60
			],
			"name":"mixamorig:RightFoot",
			"rotation":[
				0.48195362091064453,
				0.011667688377201557,
				-0.006418564822524786,
				0.8760955929756165
			],
			"scale":[
				1,
				0.9999999403953552,
				0.9999999403953552
			],
			"translation":[
				3.7869904190301895e-07,
				14.922247886657715,
				-4.7264620661735535e-08
			]
		},
		{
			"children":[
				61
			],
			"name":"mixamorig:RightLeg",
			"rotation":[
				-0.01263680774718523,
				-0.00019722539582289755,
				0.01602175273001194,
				0.9997918009757996
			],
			"scale":[
				1,
				1.0000001192092896,
				1
			],
			"translation":[
				2.1886080503463745e-08,
				16.42719841003418,
				4.7730281949043274e-08
			]
		},
		{
			"children":[
				62
			],
			"name":"mixamorig:RightUpLeg",
			"rotation":[
				0.0009077845606952906,
				-0.032678551971912384,
				0.9990853071212769,
				0.027564318850636482
			],
			"scale":[
				1.0000054836273193,
				1,
				1.0000078678131104
			],
			"translation":[
				-3.5235214233398438,
				-2.0741732120513916,
				-0.035892896354198456
			]
		},
		{
			"children":[
				53,
				58,
				63
			],
			"name":"mixamorig:Hips",
			"rotation":[
				-0.7071067690849304,
				0,
				0,
				0.7071067690849304
			],
			"scale":[
				1,
				0.9999998807907104,
				1
			],
			"translation":[
				-0.11172723025083542,
				2.7025673389434814,
				-37.695133209228516
			]
		},
		{
			"mesh":0,
			"name":"Arc Reactor",
			"skin":0
		},
		{
			"mesh":1,
			"name":"Glass",
			"skin":0
		},
		{
			"mesh":2,
			"name":"Gold",
			"skin":0
		},
		{
			"mesh":3,
			"name":"Lights",
			"skin":0
		},
		{
			"mesh":4,
			"name":"Red",
			"skin":0
		},
		{
			"mesh":5,
			"name":"Silver",
			"skin":0
		},
		{
			"children":[
				65,
				66,
				67,
				68,
				69,
				70,
				64
			],
			"name":"Armature",
			"rotation":[
				0.7071068286895752,
				0,
				0,
				0.7071068286895752
			],
			"scale":[
				0.0010000000474974513,
				0.0010000000474974513,
				0.0010000000474974513
			]
		}
	],
	"materials":[
		{
			"doubleSided":true,
			"extensions":{
				"KHR_materials_clearcoat":{
					"clearcoatRoughnessFactor":0
				},
				"KHR_materials_specular":{
					"specularColorFactor":[
						2.0,
						2.0,
						2.0
					]
				},
				"KHR_materials_ior":{
					"ior":1.5199999809265137
				}
			},
			"name":"Arc Reactor",
			"normalTexture":{
				"index":0
			},
			"pbrMetallicRoughness":{
				"baseColorTexture":{
					"index":1
				},
				"metallicRoughnessTexture":{
					"index":2
				}
			}
		},
		{
			"doubleSided":true,
			"extensions":{
				"KHR_materials_clearcoat":{
					"clearcoatRoughnessFactor":0
				},
				"KHR_materials_specular":{
					"specularColorFactor":[
						2.0,
						2.0,
						2.0
					]
				},
				"KHR_materials_ior":{
					"ior":1.5199999809265137
				}
			},
			"name":"Glass",
			"pbrMetallicRoughness":{
				"baseColorTexture":{
					"index":3
				},
				"metallicFactor":0,
				"roughnessFactor":0
			}
		},
		{
			"doubleSided":true,
			"extensions":{
				"KHR_materials_clearcoat":{
					"clearcoatRoughnessFactor":0
				},
				"KHR_materials_specular":{
					"specularColorFactor":[
						2.0,
						2.0,
						2.0
					]
				},
				"KHR_materials_ior":{
					"ior":1.5199999809265137
				}
			},
			"name":"Gold Part",
			"normalTexture":{
				"index":4
			},
			"pbrMetallicRoughness":{
				"baseColorTexture":{
					"index":5
				},
				"metallicRoughnessTexture":{
					"index":6
				}
			}
		},
		{
			"doubleSided":true,
			"extensions":{
				"KHR_materials_clearcoat":{
					"clearcoatRoughnessFactor":0
				},
				"KHR_materials_specular":{
					"specularColorFactor":[
						2.0,
						2.0,
						2.0
					]
				},
				"KHR_materials_ior":{
					"ior":1.5199999809265137
				}
			},
			"name":"Lights",
			"pbrMetallicRoughness":{
				"baseColorTexture":{
					"index":7
				},
				"metallicFactor":0,
				"roughnessFactor":0
			}
		},
		{
			"doubleSided":true,
			"extensions":{
				"KHR_materials_clearcoat":{
					"clearcoatRoughnessFactor":0
				},
				"KHR_materials_specular":{
					"specularColorFactor":[
						2.0,
						2.0,
						2.0
					]
				},
				"KHR_materials_ior":{
					"ior":1.5199999809265137
				}
			},
			"name":"Red Part",
			"normalTexture":{
				"index":8
			},
			"pbrMetallicRoughness":{
				"baseColorTexture":{
					"index":9
				},
				"metallicRoughnessTexture":{
					"index":10
				}
			}
		},
		{
			"doubleSided":true,
			"extensions":{
				"KHR_materials_clearcoat":{
					"clearcoatRoughnessFactor":0
				},
				"KHR_materials_specular":{
					"specularColorFactor":[
						2.0,
						2.0,
						2.0
					]
				},
				"KHR_materials_ior":{
					"ior":1.5199999809265137
				}
			},
			"name":"Silver Part",
			"normalTexture":{
				"index":11
			},
			"pbrMetallicRoughness":{
				"baseColorTexture":{
					"index":12
				},
				"metallicRoughnessTexture":{
					"index":13
				}
			}
		}
	],
	"meshes":[
		{
			"name":"Mesh.001",
			"primitives":[
				{
					"attributes":{
						"POSITION":0,
						"NORMAL":1,
						"TEXCOORD_0":2,
						"JOINTS_0":3,
						"WEIGHTS_0":4
					},
					"indices":5,
					"material":0
				}
			]
		},
		{
			"name":"Mesh.005",
			"primitives":[
				{
					"attributes":{
						"POSITION":7,
						"NORMAL":8,
						"TEXCOORD_0":9,
						"JOINTS_0":10,
						"WEIGHTS_0":11
					},
					"indices":12,
					"material":1
				}
			]
		},
		{
			"name":"Mesh.002",
			"primitives":[
				{
					"attributes":{
						"POSITION":13,
						"NORMAL":14,
						"TEXCOORD_0":15,
						"JOINTS_0":16,
						"WEIGHTS_0":17
					},
					"indices":18,
					"material":2
				}
			]
		},
		{
			"name":"Mesh.004",
			"primitives":[
				{
					"attributes":{
						"POSITION":19,
						"NORMAL":20,
						"TEXCOORD_0":21,
						"JOINTS_0":22,
						"WEIGHTS_0":23
					},
					"indices":24,
					"material":3
				}
			]
		},
		{
			"name":"Mesh.003",
			"primitives":[
				{
					"attributes":{
						"POSITION":25,
						"NORMAL":26,
						"TEXCOORD_0":27,
						"JOINTS_0":28,
						"WEIGHTS_0":29
					},
					"indices":30,
					"material":4
				}
			]
		},
		{
			"name":"Mesh",
			"primitives":[
				{
					"attributes":{
						"POSITION":31,
						"NORMAL":32,
						"TEXCOORD_0":33,
						"JOINTS_0":34,
						"WEIGHTS_0":35
					},
					"indices":36,
					"material":5
				}
			]
		}
	],
	"textures":[
		{
			"sampler":0,
			"source":0
		},
		{
			"sampler":0,
			"source":1
		},
		{
			"sampler":0,
			"source":2
		},
		{
			"sampler":0,
			"source":1
		},
		{
			"sampler":0,
			"source":3
		},
		{
			"sampler":0,
			"source":4
		},
		{
			"sampler":0,
			"source":5
		},
		{
			"sampler":0,
			"source":6
		},
		{
			"sampler":0,
			"source":7
		},
		{
			"sampler":0,
			"source":8
		},
		{
			"sampler":0,
			"source":9
		},
		{
			"sampler":0,
			"source":10
		},
		{
			"sampler":0,
			"source":11
		},
		{
			"sampler":0,
			"source":12
		}
	],
	"images":[
		{
			"mimeType":"image/png",
			"name":"For_Substance_Low_Polly_Arc_Reactor_Normal",
			"uri":"For_Substance_Low_Polly_Arc_Reactor_Normal.png"
		},
		{
			"mimeType":"image/png",
			"name":"For_Substance_Low_Polly_Arc_Reactor_BaseCo",
			"uri":"For_Substance_Low_Polly_Arc_Reactor_BaseCo.png"
		},
		{
			"mimeType":"image/png",
			"name":"For_Substance_Low_Polly_Arc_Reactor_Metall-For_Substance_Low_Polly_Arc_Reactor_Roughn",
			"uri":"For_Substance_Low_Polly_Arc_Reactor_Metall-For_Substance_Low_Polly_Arc_Reactor_Roughn.png"
		},
		{
			"mimeType":"image/png",
			"name":"For_Substance_Low_Polly_Gold_Part_Normal",
			"uri":"For_Substance_Low_Polly_Gold_Part_Normal.png"
		},
		{
			"mimeType":"image/png",
			"name":"For_Substance_Low_Polly_Gold_Part_BaseColo",
			"uri":"For_Substance_Low_Polly_Gold_Part_BaseColo.png"
		},
		{
			"mimeType":"image/png",
			"name":"For_Substance_Low_Polly_Gold_Part_Metallic-For_Substance_Low_Polly_Gold_Part_Roughnes",
			"uri":"For_Substance_Low_Polly_Gold_Part_Metallic-For_Substance_Low_Polly_Gold_Part_Roughnes.png"
		},
		{
			"mimeType":"image/png",
			"name":"For_Substance_Low_Polly_Lights_BaseColor",
			"uri":"For_Substance_Low_Polly_Lights_BaseColor.png"
		},
		{
			"mimeType":"image/png",
			"name":"For_Substance_Low_Polly_Red_Part_Normal",
			"uri":"For_Substance_Low_Polly_Red_Part_Normal.png"
		},
		{
			"mimeType":"image/png",
			"name":"For_Substance_Low_Polly_Red_Part_BaseColor",
			"uri":"For_Substance_Low_Polly_Red_Part_BaseColor.png"
		},
		{
			"mimeType":"image/png",
			"name":"For_Substance_Low_Polly_Red_Part_Metallic-For_Substance_Low_Polly_Red_Part_Roughness",
			"uri":"For_Substance_Low_Polly_Red_Part_Metallic-For_Substance_Low_Polly_Red_Part_Roughness.png"
		},
		{
			"mimeType":"image/png",
			"name":"For_Substance_Low_Polly_Silver_Part_Normal",
			"uri":"For_Substance_Low_Polly_Silver_Part_Normal.png"
		},
		{
			"mimeType":"image/png",
			"name":"For_Substance_Low_Polly_Silver_Part_BaseCo",
			"uri":"For_Substance_Low_Polly_Silver_Part_BaseCo.png"
		},
		{
			"mimeType":"image/png",
			"name":"For_Substance_Low_Polly_Silver_Part_Metall-For_Substance_Low_Polly_Silver_Part_Roughn",
			"uri":"For_Substance_Low_Polly_Silver_Part_Metall-For_Substance_Low_Polly_Silver_Part_Roughn.png"
		}
	],
	"skins":[
		{
			"inverseBindMatrices":6,
			"joints":[
				64,
				53,
				52,
				51,
				2,
				1,
				0,
				26,
				25,
				24,
				23,
				6,
				5,
				4,
				3,
				10,
				9,
				8,
				7,
				14,
				13,
				12,
				11,
				18,
				17,
				16,
				15,
				22,
				21,
				20,
				19,
				50,
				49,
				48,
				47,
				30,
				29,
				28,
				27,
				34,
				33,
				32,
				31,
				38,
				37,
				36,
				35,
				42,
				41,
				40,
				39,
				46,
				45,
				44,
				43,
				58,
				57,
				56,
				55,
				54,
				63,
				62,
				61,
				60,
				59
			],
			"name":"Armature"
		}
	],
	"accessors":[
		{
			"bufferView":0,
			"componentType":5126,
			"count":148595,
			"max":[
				0.001771872746758163,
				0.051594335585832596,
				0.00814792886376381
			],
			"min":[
				-0.0017718770541250706,
				0.0487518385052681,
				0.006625133100897074
			],
			"type":"VEC3"
		},
		{
			"bufferView":1,
			"componentType":5126,
			"count":148595,
			"type":"VEC3"
		},
		{
			"bufferView":2,
			"componentType":5126,
			"count":148595,
			"type":"VEC2"
		},
		{
			"bufferView":3,
			"componentType":5121,
			"count":148595,
			"type":"VEC4"
		},
		{
			"bufferView":4,
			"componentType":5126,
			"count":148595,
			"type":"VEC4"
		},
		{
			"bufferView":5,
			"componentType":5125,
			"count":372432,
			"type":"SCALAR"
		},
		{
			"bufferView":6,
			"componentType":5126,
			"count":65,
			"type":"MAT4"
		},
		{
			"bufferView":7,
			"componentType":5126,
			"count":268,
			"max":[
				0.0013873364077880979,
				0.05148908495903015,
				0.008339217863976955
			],
			"min":[
				-0.0013873364077880979,
				0.048884451389312744,
				0.007287743967026472
			],
			"type":"VEC3"
		},
		{
			"bufferView":8,
			"componentType":5126,
			"count":268,
			"type":"VEC3"
		},
		{
			"bufferView":9,
			"componentType":5126,
			"count":268,
			"type":"VEC2"
		},
		{
			"bufferView":10,
			"componentType":5121,
			"count":268,
			"type":"VEC4"
		},
		{
			"bufferView":11,
			"componentType":5126,
			"count":268,
			"type":"VEC4"
		},
		{
			"bufferView":12,
			"componentType":5123,
			"count":1008,
			"type":"SCALAR"
		},
		{
			"bufferView":13,
			"componentType":5126,
			"count":56592,
			"max":[
				0.019604530185461044,
				0.06527955830097198,
				0.00811542384326458
			],
			"min":[
				-0.019372746348381042,
				0.015186886303126812,
				-0.0044965907000005245
			],
			"type":"VEC3"
		},
		{
			"bufferView":14,
			"componentType":5126,
			"count":56592,
			"type":"VEC3"
		},
		{
			"bufferView":15,
			"componentType":5126,
			"count":56592,
			"type":"VEC2"
		},
		{
			"bufferView":16,
			"componentType":5121,
			"count":56592,
			"type":"VEC4"
		},
		{
			"bufferView":17,
			"componentType":5126,
			"count":56592,
			"type":"VEC4"
		},
		{
			"bufferView":18,
			"componentType":5123,
			"count":163692,
			"type":"SCALAR"
		},
		{
			"bufferView":19,
			"componentType":5126,
			"count":18435,
			"max":[
				0.01690659485757351,
				0.062401894479990005,
				0.008093094453215599
			],
			"min":[
				-0.01667480543255806,
				0.0005523543804883957,
				-0.0033326318953186274
			],
			"type":"VEC3"
		},
		{
			"bufferView":20,
			"componentType":5126,
			"count":18435,
			"type":"VEC3"
		},
		{
			"bufferView":21,
			"componentType":5126,
			"count":18435,
			"type":"VEC2"
		},
		{
			"bufferView":22,
			"componentType":5121,
			"count":18435,
			"type":"VEC4"
		},
		{
			"bufferView":23,
			"componentType":5126,
			"count":18435,
			"type":"VEC4"
		},
		{
			"bufferView":24,
			"componentType":5123,
			"count":52944,
			"type":"SCALAR"
		},
		{
			"bufferView":25,
			"componentType":5126,
			"count":157523,
			"max":[
				0.01978958211839199,
				0.0664714053273201,
				0.008608140982687473
			],
			"min":[
				-0.019558126106858253,
				-0.00010099510836880654,
				-0.0046165138483047485
			],
			"type":"VEC3"
		},
		{
			"bufferView":26,
			"componentType":5126,
			"count":157523,
			"type":"VEC3"
		},
		{
			"bufferView":27,
			"componentType":5126,
			"count":157523,
			"type":"VEC2"
		},
		{
			"bufferView":28,
			"componentType":5121,
			"count":157523,
			"type":"VEC4"
		},
		{
			"bufferView":29,
			"componentType":5126,
			"count":157523,
			"type":"VEC4"
		},
		{
			"bufferView":30,
			"componentType":5125,
			"count":450036,
			"type":"SCALAR"
		},
		{
			"bufferView":31,
			"componentType":5126,
			"count":314276,
			"max":[
				0.01968793384730816,
				0.06417939811944962,
				0.00874919630587101
			],
			"min":[
				-0.01945735327899456,
				-2.5408424335182644e-05,
				-0.004643948283046484
			],
			"type":"VEC3"
		},
		{
			"bufferView":32,
			"componentType":5126,
			"count":314276,
			"type":"VEC3"
		},
		{
			"bufferView":33,
			"componentType":5126,
			"count":314276,
			"type":"VEC2"
		},
		{
			"bufferView":34,
			"componentType":5121,
			"count":314276,
			"type":"VEC4"
		},
		{
			"bufferView":35,
			"componentType":5126,
			"count":314276,
			"type":"VEC4"
		},
		{
			"bufferView":36,
			"componentType":5125,
			"count":879465,
			"type":"SCALAR"
		}
	],
	"bufferViews":[
		{
			"buffer":0,
			"byteLength":1783140,
			"byteOffset":0,
			"target":34962
		},
		{
			"buffer":0,
			"byteLength":1783140,
			"byteOffset":1783140,
			"target":34962
		},
		{
			"buffer":0,
			"byteLength":1188760,
			"byteOffset":3566280,
			"target":34962
		},
		{
			"buffer":0,
			"byteLength":594380,
			"byteOffset":4755040,
			"target":34962
		},
		{
			"buffer":0,
			"byteLength":2377520,
			"byteOffset":5349420,
			"target":34962
		},
		{
			"buffer":0,
			"byteLength":1489728,
			"byteOffset":7726940,
			"target":34963
		},
		{
			"buffer":0,
			"byteLength":4160,
			"byteOffset":9216668
		},
		{
			"buffer":0,
			"byteLength":3216,
			"byteOffset":9220828,
			"target":34962
		},
		{
			"buffer":0,
			"byteLength":3216,
			"byteOffset":9224044,
			"target":34962
		},
		{
			"buffer":0,
			"byteLength":2144,
			"byteOffset":9227260,
			"target":34962
		},
		{
			"buffer":0,
			"byteLength":1072,
			"byteOffset":9229404,
			"target":34962
		},
		{
			"buffer":0,
			"byteLength":4288,
			"byteOffset":9230476,
			"target":34962
		},
		{
			"buffer":0,
			"byteLength":2016,
			"byteOffset":9234764,
			"target":34963
		},
		{
			"buffer":0,
			"byteLength":679104,
			"byteOffset":9236780,
			"target":34962
		},
		{
			"buffer":0,
			"byteLength":679104,
			"byteOffset":9915884,
			"target":34962
		},
		{
			"buffer":0,
			"byteLength":452736,
			"byteOffset":10594988,
			"target":34962
		},
		{
			"buffer":0,
			"byteLength":226368,
			"byteOffset":11047724,
			"target":34962
		},
		{
			"buffer":0,
			"byteLength":905472,
			"byteOffset":11274092,
			"target":34962
		},
		{
			"buffer":0,
			"byteLength":327384,
			"byteOffset":12179564,
			"target":34963
		},
		{
			"buffer":0,
			"byteLength":221220,
			"byteOffset":12506948,
			"target":34962
		},
		{
			"buffer":0,
			"byteLength":221220,
			"byteOffset":12728168,
			"target":34962
		},
		{
			"buffer":0,
			"byteLength":147480,
			"byteOffset":12949388,
			"target":34962
		},
		{
			"buffer":0,
			"byteLength":73740,
			"byteOffset":13096868,
			"target":34962
		},
		{
			"buffer":0,
			"byteLength":294960,
			"byteOffset":13170608,
			"target":34962
		},
		{
			"buffer":0,
			"byteLength":105888,
			"byteOffset":13465568,
			"target":34963
		},
		{
			"buffer":0,
			"byteLength":1890276,
			"byteOffset":13571456,
			"target":34962
		},
		{
			"buffer":0,
			"byteLength":1890276,
			"byteOffset":15461732,
			"target":34962
		},
		{
			"buffer":0,
			"byteLength":1260184,
			"byteOffset":17352008,
			"target":34962
		},
		{
			"buffer":0,
			"byteLength":630092,
			"byteOffset":18612192,
			"target":34962
		},
		{
			"buffer":0,
			"byteLength":2520368,
			"byteOffset":19242284,
			"target":34962
		},
		{
			"buffer":0,
			"byteLength":1800144,
			"byteOffset":21762652,
			"target":34963
		},
		{
			"buffer":0,
			"byteLength":3771312,
			"byteOffset":23562796,
			"target":34962
		},
		{
			"buffer":0,
			"byteLength":3771312,
			"byteOffset":27334108,
			"target":34962
		},
		{
			"buffer":0,
			"byteLength":2514208,
			"byteOffset":31105420,
			"target":34962
		},
		{
			"buffer":0,
			"byteLength":1257104,
			"byteOffset":33619628,
			"target":34962
		},
		{
			"buffer":0,
			"byteLength":5028416,
			"byteOffset":34876732,
			"target":34962
		},
		{
			"buffer":0,
			"byteLength":3517860,
			"byteOffset":39905148,
			"target":34963
		}
	],
	"samplers":[
		{
			"magFilter":9729,
			"minFilter":9987
		}
	],
	"buffers":[
		{
			"byteLength":43423008,
			"uri":"ironman.bin"
		}
	]
}
