{
	"asset":{
		"generator":"Khronos glTF Blender I/O v5.0.21",
		"version":"2.0"
	},
	"scene":0,
	"scenes":[
		{
			"name":"Scene",
			"nodes":[
				8
			]
		}
	],
	"nodes":[
		{
			"mesh":0,
			"name":"Cylinder.001_Base_0"
		},
		{
			"children":[
				0
			],
			"name":"Cylinder.001",
			"rotation":[
				-0.70710688829422,
				0,
				0,
				0.7071066498756409
			],
			"scale":[
				100,
				99.99998474121094,
				99.99998474121094
			],
			"translation":[
				0,
				12.324825286865234,
				0
			]
		},
		{
			"mesh":1,
			"name":"Plane_Details_Cevre_0"
		},
		{
			"mesh":2,
			"name":"Plane_Details_Cevre_0.001"
		},
		{
			"mesh":3,
			"name":"Plane_Details_Cevre_0.002"
		},
		{
			"children":[
				2,
				3,
				4
			],
			"name":"Plane",
			"rotation":[
				-0.70710688829422,
				0,
				0,
				0.7071066498756409
			],
			"scale":[
				100,
				99.99998474121094,
				99.99998474121094
			]
		},
		{
			"children":[
				1,
				5
			],
			"name":"RootNode"
		},
		{
			"children":[
				6
			],
			"name":"24cbae276e214082b4b2a44262456a44.fbx",
			"rotation":[
				0.70710688829422,
				0,
				0,
				0.7071066498756409
			],
			"scale":[
				0.009999999776482582,
				0.009999999776482582,
				0.009999999776482582
			]
		},
		{
			"children":[
				7
			],
			"name":"Sketchfab_model",
			"rotation":[
				-0.70710688829422,
				0,
				0,
				0.7071066498756409
			]
		}
	],
	"materials":[
		{
			"doubleSided":true,
			"name":"Base.001",
			"normalTexture":{
				"index":0
			},
			"pbrMetallicRoughness":{
				"baseColorTexture":{
					"index":1
				},
				"metallicRoughnessTexture":{
					"index":2
				}
			}
		},
		{
			"doubleSided":true,
			"name":"Details_Cevre.001",
			"normalTexture":{
				"index":3
			},
			"pbrMetallicRoughness":{
				"baseColorTexture":{
					"index":4
				},
				"metallicRoughnessTexture":{
					"index":5
				}
			}
		}
	],
	"meshes":[
		{
			"name":"Cylinder.001_Base_0.001",
			"primitives":[
				{
					"attributes":{
						"POSITION":0,
						"NORMAL":1,
						"TEXCOORD_0":2
					},
					"indices":3,
					"material":0
				}
			]
		},
		{
			"name":"Plane_Details_Cevre_0.003",
			"primitives":[
				{
					"attributes":{
						"POSITION":4,
						"NORMAL":5,
						"TEXCOORD_0":6
					},
					"indices":7,
					"material":1
				}
			]
		},
		{
			"name":"Plane_Details_Cevre_0.004",
			"primitives":[
				{
					"attributes":{
						"POSITION":8,
						"NORMAL":9,
						"TEXCOORD_0":10
					},
					"indices":11,
					"material":1
				}
			]
		},
		{
			"name":"Plane_Details_Cevre_0.005",
			"primitives":[
				{
					"attributes":{
						"POSITION":12,
						"NORMAL":13,
						"TEXCOORD_0":14
					},
					"indices":15,
					"material":1
				}
			]
		}
	],
	"textures":[
		{
			"sampler":0,
			"source":0
		},
		{
			"sampler":0,
			"source":1
		},
		{
			"sampler":0,
			"source":2
		},
		{
			"sampler":0,
			"source":3
		},
		{
			"sampler":0,
			"source":4
		},
		{
			"sampler":0,
			"source":5
		}
	],
	"images":[
		{
			"mimeType":"image/png",
			"name":"Base_normal",
			"uri":"Base_normal.png"
		},
		{
			"mimeType":"image/png",
			"name":"Base_baseColor",
			"uri":"Base_baseColor.png"
		},
		{
			"mimeType":"image/png",
			"name":"Base_metallicRoughness",
			"uri":"Base_metallicRoughness.png"
		},
		{
			"mimeType":"image/png",
			"name":"Details_Cevre_normal",
			"uri":"Details_Cevre_normal.png"
		},
		{
			"mimeType":"image/png",
			"name":"Details_Cevre_baseColor",
			"uri":"Details_Cevre_baseColor.png"
		},
		{
			"mimeType":"image/png",
			"name":"Details_Cevre_metallicRoughness",
			"uri":"Details_Cevre_metallicRoughness.png"
		}
	],
	"accessors":[
		{
			"bufferView":0,
			"componentType":5126,
			"count":18028,
			"max":[
				2.6633214950561523,
				4.906614780426025,
				1.1646724939346313
			],
			"min":[
				-2.6633214950561523,
				-2.577296495437622,
				-2.695856809616089
			],
			"type":"VEC3"
		},
		{
			"bufferView":1,
			"componentType":5126,
			"count":18028,
			"type":"VEC3"
		},
		{
			"bufferView":2,
			"componentType":5126,
			"count":18028,
			"type":"VEC2"
		},
		{
			"bufferView":3,
			"componentType":5123,
			"count":47997,
			"type":"SCALAR"
		},
		{
			"bufferView":4,
			"componentType":5126,
			"count":69088,
			"max":[
				3.215226411819458,
				4.910704135894775,
				1.272549033164978
			],
			"min":[
				-3.215226411819458,
				-2.592895030975342,
				-1.5872139930725098
			],
			"type":"VEC3"
		},
		{
			"bufferView":5,
			"componentType":5126,
			"count":69088,
			"type":"VEC3"
		},
		{
			"bufferView":6,
			"componentType":5126,
			"count":69088,
			"type":"VEC2"
		},
		{
			"bufferView":7,
			"componentType":5125,
			"count":217134,
			"type":"SCALAR"
		},
		{
			"bufferView":8,
			"componentType":5126,
			"count":68951,
			"max":[
				2.9847140312194824,
				4.886299133300781,
				0.9977395534515381
			],
			"min":[
				-2.9847140312194824,
				-2.5616674423217773,
				-2.7149689197540283
			],
			"type":"VEC3"
		},
		{
			"bufferView":9,
			"componentType":5126,
			"count":68951,
			"type":"VEC3"
		},
		{
			"bufferView":10,
			"componentType":5126,
			"count":68951,
			"type":"VEC2"
		},
		{
			"bufferView":11,
			"componentType":5125,
			"count":230673,
			"type":"SCALAR"
		},
		{
			"bufferView":12,
			"componentType":5126,
			"count":38731,
			"max":[
				2.407445192337036,
				4.951056480407715,
				1.255394458770752
			],
			"min":[
				-2.407445192337036,
				-1.8068746328353882,
				-0.7671676278114319
			],
			"type":"VEC3"
		},
		{
			"bufferView":13,
			"componentType":5126,
			"count":38731,
			"type":"VEC3"
		},
		{
			"bufferView":14,
			"componentType":5126,
			"count":38731,
			"type":"VEC2"
		},
		{
			"bufferView":15,
			"componentType":5123,
			"count":193311,
			"type":"SCALAR"
		}
	],
	"bufferViews":[
		{
			"buffer":0,
			"byteLength":216336,
			"byteOffset":0,
			"target":34962
		},
		{
			"buffer":0,
			"byteLength":216336,
			"byteOffset":216336,
			"target":34962
		},
		{
			"buffer":0,
			"byteLength":144224,
			"byteOffset":432672,
			"target":34962
		},
		{
			"buffer":0,
			"byteLength":95994,
			"byteOffset":576896,
			"target":34963
		},
		{
			"buffer":0,
			"byteLength":829056,
			"byteOffset":672892,
			"target":34962
		},
		{
			"buffer":0,
			"byteLength":829056,
			"byteOffset":1501948,
			"target":34962
		},
		{
			"buffer":0,
			"byteLength":552704,
			"byteOffset":2331004,
			"target":34962
		},
		{
			"buffer":0,
			"byteLength":868536,
			"byteOffset":2883708,
			"target":34963
		},
		{
			"buffer":0,
			"byteLength":827412,
			"byteOffset":3752244,
			"target":34962
		},
		{
			"buffer":0,
			"byteLength":827412,
			"byteOffset":4579656,
			"target":34962
		},
		{
			"buffer":0,
			"byteLength":551608,
			"byteOffset":5407068,
			"target":34962
		},
		{
			"buffer":0,
			"byteLength":922692,
			"byteOffset":5958676,
			"target":34963
		},
		{
			"buffer":0,
			"byteLength":464772,
			"byteOffset":6881368,
			"target":34962
		},
		{
			"buffer":0,
			"byteLength":464772,
			"byteOffset":7346140,
			"target":34962
		},
		{
			"buffer":0,
			"byteLength":309848,
			"byteOffset":7810912,
			"target":34962
		},
		{
			"buffer":0,
			"byteLength":386622,
			"byteOffset":8120760,
			"target":34963
		}
	],
	"samplers":[
		{
			"magFilter":9729,
			"minFilter":9987
		}
	],
	"buffers":[
		{
			"byteLength":8507384,
			"uri":"spacehanger.bin"
		}
	]
}
