{
	"asset":{
		"generator":"Khronos glTF Blender I/O v5.0.21",
		"version":"2.0"
	},
	"extensionsUsed":[
		"KHR_materials_clearcoat",
		"KHR_materials_emissive_strength",
		"KHR_materials_specular",
		"KHR_materials_ior"
	],
	"scene":0,
	"scenes":[
		{
			"name":"Scene",
			"nodes":[
				0,
				1,
				2,
				3,
				12
			]
		}
	],
	"nodes":[
		{
			"mesh":0,
			"name":"Gold",
			"rotation":[
				0.6278171539306641,
				-0.3253360986709595,
				0.32533347606658936,
				0.6278218626976013
			],
			"scale":[
				0.536153256893158,
				0.536153256893158,
				0.536153256893158
			],
			"translation":[
				14.147791862487793,
				-32.82924270629883,
				-177.9151611328125
			]
		},
		{
			"mesh":1,
			"name":"Lights",
			"rotation":[
				0.6278171539306641,
				-0.3253360986709595,
				0.32533347606658936,
				0.6278218626976013
			],
			"scale":[
				0.536153256893158,
				0.536153256893158,
				0.536153256893158
			],
			"translation":[
				14.147791862487793,
				-32.82924270629883,
				-177.9151611328125
			]
		},
		{
			"mesh":2,
			"name":"Red",
			"rotation":[
				0.6278171539306641,
				-0.3253360986709595,
				0.32533347606658936,
				0.6278218626976013
			],
			"scale":[
				0.536153256893158,
				0.536153256893158,
				0.536153256893158
			],
			"translation":[
				14.147791862487793,
				-32.82924270629883,
				-177.9151611328125
			]
		},
		{
			"mesh":3,
			"name":"Silver",
			"rotation":[
				0.6278171539306641,
				-0.3253360986709595,
				0.32533347606658936,
				0.6278218626976013
			],
			"scale":[
				0.536153256893158,
				0.536153256893158,
				0.536153256893158
			],
			"translation":[
				14.147791862487793,
				-32.82924270629883,
				-177.9151611328125
			]
		},
		{
			"mesh":4,
			"name":"Cylinder.001_Base_0"
		},
		{
			"children":[
				4
			],
			"name":"Cylinder.001",
			"rotation":[
				-0.70710688829422,
				0,
				0,
				0.7071066498756409
			],
			"scale":[
				100,
				100,
				100.00000762939453
			],
			"translation":[
				3.1342577130999416e-05,
				12.324828147888184,
				0
			]
		},
		{
			"mesh":5,
			"name":"Plane_Details_Cevre_0"
		},
		{
			"mesh":6,
			"name":"Plane_Details_Cevre_0.001"
		},
		{
			"mesh":7,
			"name":"Plane_Details_Cevre_0.002"
		},
		{
			"children":[
				6,
				7,
				8
			],
			"name":"Plane",
			"rotation":[
				-0.70710688829422,
				0,
				0,
				0.7071066498756409
			],
			"scale":[
				100,
				100,
				100.00000762939453
			],
			"translation":[
				3.0517578125e-05,
				0,
				0
			]
		},
		{
			"children":[
				5,
				9
			],
			"name":"RootNode",
			"translation":[
				3.0517578125e-05,
				0,
				0
			]
		},
		{
			"children":[
				10
			],
			"name":"24cbae276e214082b4b2a44262456a44.fbx",
			"rotation":[
				0.70710688829422,
				0,
				0,
				0.7071066498756409
			],
			"scale":[
				0.010000000707805157,
				0.010000000707805157,
				0.010000001639127731
			]
		},
		{
			"children":[
				11
			],
			"name":"Sketchfab_model",
			"rotation":[
				-0.6520537734031677,
				-0.2735433876514435,
				-0.27354341745376587,
				0.6520536541938782
			],
			"scale":[
				43.6280632019043,
				43.62807083129883,
				43.62806701660156
			],
			"translation":[
				-114.39907836914062,
				0,
				-45.706787109375
			]
		}
	],
	"materials":[
		{
			"doubleSided":true,
			"extensions":{
				"KHR_materials_clearcoat":{
					"clearcoatRoughnessFactor":0
				},
				"KHR_materials_specular":{
					"specularColorFactor":[
						2.0,
						2.0,
						2.0
					]
				},
				"KHR_materials_ior":{
					"ior":1.5199999809265137
				}
			},
			"name":"Gold Part",
			"normalTexture":{
				"index":0
			},
			"pbrMetallicRoughness":{
				"baseColorTexture":{
					"index":1
				},
				"metallicRoughnessTexture":{
					"index":2
				}
			}
		},
		{
			"doubleSided":true,
			"emissiveFactor":[
				1,
				1,
				1
			],
			"emissiveTexture":{
				"index":3
			},
			"extensions":{
				"KHR_materials_clearcoat":{
					"clearcoatRoughnessFactor":0
				},
				"KHR_materials_specular":{
					"specularColorFactor":[
						2.0,
						2.0,
						2.0
					]
				},
				"KHR_materials_ior":{
					"ior":1.5199999809265137
				}
			},
			"name":"Lights",
			"pbrMetallicRoughness":{
				"baseColorFactor":[
					0.800000011920929,
					0.800000011920929,
					0.800000011920929,
					1
				],
				"metallicFactor":0,
				"roughnessFactor":0
			}
		},
		{
			"doubleSided":true,
			"extensions":{
				"KHR_materials_clearcoat":{
					"clearcoatRoughnessFactor":0
				},
				"KHR_materials_specular":{
					"specularColorFactor":[
						2.0,
						2.0,
						2.0
					]
				},
				"KHR_materials_ior":{
					"ior":1.5199999809265137
				}
			},
			"name":"Red Part",
			"normalTexture":{
				"index":4
			},
			"pbrMetallicRoughness":{
				"baseColorTexture":{
					"index":5
				},
				"metallicRoughnessTexture":{
					"index":6
				}
			}
		},
		{
			"doubleSided":true,
			"extensions":{
				"KHR_materials_clearcoat":{
					"clearcoatRoughnessFactor":0
				},
				"KHR_materials_specular":{
					"specularColorFactor":[
						2.0,
						2.0,
						2.0
					]
				},
				"KHR_materials_ior":{
					"ior":1.5199999809265137
				}
			},
			"name":"Silver Part",
			"normalTexture":{
				"index":7
			},
			"pbrMetallicRoughness":{
				"baseColorTexture":{
					"index":8
				},
				"metallicRoughnessTexture":{
					"index":9
				}
			}
		},
		{
			"doubleSided":true,
			"emissiveFactor":[
				1,
				1,
				1
			],
			"emissiveTexture":{
				"index":10
			},
			"extensions":{
				"KHR_materials_emissive_strength":{
					"emissiveStrength":10
				}
			},
			"name":"Base.003",
			"normalTexture":{
				"index":11
			},
			"occlusionTexture":{
				"index":12
			},
			"pbrMetallicRoughness":{
				"baseColorTexture":{
					"index":13
				},
				"metallicRoughnessTexture":{
					"index":12
				}
			}
		},
		{
			"doubleSided":true,
			"emissiveFactor":[
				1,
				1,
				1
			],
			"emissiveTexture":{
				"index":14
			},
			"extensions":{
				"KHR_materials_emissive_strength":{
					"emissiveStrength":10
				}
			},
			"name":"Details_Cevre.003",
			"normalTexture":{
				"index":15
			},
			"occlusionTexture":{
				"index":16
			},
			"pbrMetallicRoughness":{
				"baseColorTexture":{
					"index":17
				},
				"metallicRoughnessTexture":{
					"index":16
				}
			}
		}
	],
	"meshes":[
		{
			"name":"Mesh.002",
			"primitives":[
				{
					"attributes":{
						"POSITION":0,
						"NORMAL":1,
						"TEXCOORD_0":2
					},
					"indices":3,
					"material":0
				}
			]
		},
		{
			"name":"Mesh.004",
			"primitives":[
				{
					"attributes":{
						"POSITION":4,
						"NORMAL":5,
						"TEXCOORD_0":6
					},
					"indices":7,
					"material":1
				}
			]
		},
		{
			"name":"Mesh.003",
			"primitives":[
				{
					"attributes":{
						"POSITION":8,
						"NORMAL":9,
						"TEXCOORD_0":10
					},
					"indices":11,
					"material":2
				}
			]
		},
		{
			"name":"Mesh",
			"primitives":[
				{
					"attributes":{
						"POSITION":12,
						"NORMAL":13,
						"TEXCOORD_0":14
					},
					"indices":15,
					"material":3
				}
			]
		},
		{
			"name":"Cylinder.001_Base_0.002",
			"primitives":[
				{
					"attributes":{
						"POSITION":16,
						"NORMAL":17,
						"TEXCOORD_0":18
					},
					"indices":19,
					"material":4
				}
			]
		},
		{
			"name":"Plane_Details_Cevre_0.006",
			"primitives":[
				{
					"attributes":{
						"POSITION":20,
						"NORMAL":21,
						"TEXCOORD_0":22
					},
					"indices":23,
					"material":5
				}
			]
		},
		{
			"name":"Plane_Details_Cevre_0.007",
			"primitives":[
				{
					"attributes":{
						"POSITION":24,
						"NORMAL":25,
						"TEXCOORD_0":26
					},
					"indices":27,
					"material":5
				}
			]
		},
		{
			"name":"Plane_Details_Cevre_0.008",
			"primitives":[
				{
					"attributes":{
						"POSITION":28,
						"NORMAL":29,
						"TEXCOORD_0":30
					},
					"indices":31,
					"material":5
				}
			]
		}
	],
	"textures":[
		{
			"sampler":0,
			"source":0
		},
		{
			"sampler":0,
			"source":1
		},
		{
			"sampler":0,
			"source":2
		},
		{
			"sampler":0,
			"source":3
		},
		{
			"sampler":0,
			"source":4
		},
		{
			"sampler":0,
			"source":5
		},
		{
			"sampler":0,
			"source":6
		},
		{
			"sampler":0,
			"source":7
		},
		{
			"sampler":0,
			"source":8
		},
		{
			"sampler":0,
			"source":9
		},
		{
			"sampler":0,
			"source":10
		},
		{
			"sampler":0,
			"source":11
		},
		{
			"sampler":0,
			"source":12
		},
		{
			"sampler":0,
			"source":13
		},
		{
			"sampler":0,
			"source":14
		},
		{
			"sampler":0,
			"source":15
		},
		{
			"sampler":0,
			"source":16
		},
		{
			"sampler":0,
			"source":17
		}
	],
	"images":[
		{
			"mimeType":"image/png",
			"name":"For_Substance_Low_Polly_Gold_Part_Normal",
			"uri":"For_Substance_Low_Polly_Gold_Part_Normal.png"
		},
		{
			"mimeType":"image/png",
			"name":"For_Substance_Low_Polly_Gold_Part_BaseColo",
			"uri":"For_Substance_Low_Polly_Gold_Part_BaseColo.png"
		},
		{
			"mimeType":"image/png",
			"name":"For_Substance_Low_Polly_Gold_Part_Metallic-For_Substance_Low_Polly_Gold_Part_Roughnes",
			"uri":"For_Substance_Low_Polly_Gold_Part_Metallic-For_Substance_Low_Polly_Gold_Part_Roughnes.png"
		},
		{
			"mimeType":"image/png",
			"name":"For_Substance_Low_Polly_Lights_BaseColor",
			"uri":"For_Substance_Low_Polly_Lights_BaseColor.png"
		},
		{
			"mimeType":"image/png",
			"name":"For_Substance_Low_Polly_Red_Part_Normal",
			"uri":"For_Substance_Low_Polly_Red_Part_Normal.png"
		},
		{
			"mimeType":"image/png",
			"name":"For_Substance_Low_Polly_Red_Part_BaseColor",
			"uri":"For_Substance_Low_Polly_Red_Part_BaseColor.png"
		},
		{
			"mimeType":"image/png",
			"name":"For_Substance_Low_Polly_Red_Part_Metallic-For_Substance_Low_Polly_Red_Part_Roughness",
			"uri":"For_Substance_Low_Polly_Red_Part_Metallic-For_Substance_Low_Polly_Red_Part_Roughness.png"
		},
		{
			"mimeType":"image/png",
			"name":"For_Substance_Low_Polly_Silver_Part_Normal",
			"uri":"For_Substance_Low_Polly_Silver_Part_Normal.png"
		},
		{
			"mimeType":"image/png",
			"name":"For_Substance_Low_Polly_Silver_Part_BaseCo",
			"uri":"For_Substance_Low_Polly_Silver_Part_BaseCo.png"
		},
		{
			"mimeType":"image/png",
			"name":"For_Substance_Low_Polly_Silver_Part_Metall-For_Substance_Low_Polly_Silver_Part_Roughn",
			"uri":"For_Substance_Low_Polly_Silver_Part_Metall-For_Substance_Low_Polly_Silver_Part_Roughn.png"
		},
		{
			"mimeType":"image/png",
			"name":"Base_emissive",
			"uri":"Base_emissive.png"
		},
		{
			"mimeType":"image/png",
			"name":"Base_normal",
			"uri":"Base_normal.png"
		},
		{
			"mimeType":"image/png",
			"name":"Base_metallicRoughness",
			"uri":"Base_metallicRoughness.png"
		},
		{
			"mimeType":"image/png",
			"name":"Base_baseColor",
			"uri":"Base_baseColor.png"
		},
		{
			"mimeType":"image/png",
			"name":"Details_Cevre_emissive",
			"uri":"Details_Cevre_emissive.png"
		},
		{
			"mimeType":"image/png",
			"name":"Details_Cevre_normal",
			"uri":"Details_Cevre_normal.png"
		},
		{
			"mimeType":"image/png",
			"name":"Details_Cevre_metallicRoughness",
			"uri":"Details_Cevre_metallicRoughness.png"
		},
		{
			"mimeType":"image/png",
			"name":"Details_Cevre_baseColor",
			"uri":"Details_Cevre_baseColor.png"
		}
	],
	"accessors":[
		{
			"bufferView":0,
			"componentType":5126,
			"count":59878,
			"max":[
				19.60453224182129,
				8.115427017211914,
				-15.1868896484375
			],
			"min":[
				-19.372751235961914,
				-4.496584892272949,
				-65.27955627441406
			],
			"type":"VEC3"
		},
		{
			"bufferView":1,
			"componentType":5126,
			"count":59878,
			"type":"VEC3"
		},
		{
			"bufferView":2,
			"componentType":5126,
			"count":59878,
			"type":"VEC2"
		},
		{
			"bufferView":3,
			"componentType":5123,
			"count":163692,
			"type":"SCALAR"
		},
		{
			"bufferView":4,
			"componentType":5126,
			"count":21490,
			"max":[
				16.90659523010254,
				8.093097686767578,
				-0.5523509383201599
			],
			"min":[
				-16.674806594848633,
				-3.3326265811920166,
				-62.401893615722656
			],
			"type":"VEC3"
		},
		{
			"bufferView":5,
			"componentType":5126,
			"count":21490,
			"type":"VEC3"
		},
		{
			"bufferView":6,
			"componentType":5126,
			"count":21490,
			"type":"VEC2"
		},
		{
			"bufferView":7,
			"componentType":5123,
			"count":52944,
			"type":"SCALAR"
		},
		{
			"bufferView":8,
			"componentType":5126,
			"count":166205,
			"max":[
				19.789581298828125,
				8.60814380645752,
				0.10099915415048599
			],
			"min":[
				-19.558130264282227,
				-4.6165080070495605,
				-66.47140502929688
			],
			"type":"VEC3"
		},
		{
			"bufferView":9,
			"componentType":5126,
			"count":166205,
			"type":"VEC3"
		},
		{
			"bufferView":10,
			"componentType":5126,
			"count":166205,
			"type":"VEC2"
		},
		{
			"bufferView":11,
			"componentType":5125,
			"count":450036,
			"type":"SCALAR"
		},
		{
			"bufferView":12,
			"componentType":5126,
			"count":332451,
			"max":[
				19.68793296813965,
				8.749146461486816,
				0.025411348789930344
			],
			"min":[
				-19.457359313964844,
				-4.643942832946777,
				-64.17939758300781
			],
			"type":"VEC3"
		},
		{
			"bufferView":13,
			"componentType":5126,
			"count":332451,
			"type":"VEC3"
		},
		{
			"bufferView":14,
			"componentType":5126,
			"count":332451,
			"type":"VEC2"
		},
		{
			"bufferView":15,
			"componentType":5125,
			"count":879465,
			"type":"SCALAR"
		},
		{
			"bufferView":16,
			"componentType":5126,
			"count":17977,
			"max":[
				2.6633214950561523,
				4.906614780426025,
				1.1646724939346313
			],
			"min":[
				-2.6633214950561523,
				-2.577296495437622,
				-2.695856809616089
			],
			"type":"VEC3"
		},
		{
			"bufferView":17,
			"componentType":5126,
			"count":17977,
			"type":"VEC3"
		},
		{
			"bufferView":18,
			"componentType":5126,
			"count":17977,
			"type":"VEC2"
		},
		{
			"bufferView":19,
			"componentType":5123,
			"count":47997,
			"type":"SCALAR"
		},
		{
			"bufferView":20,
			"componentType":5126,
			"count":69033,
			"max":[
				3.215226411819458,
				4.910704135894775,
				1.272549033164978
			],
			"min":[
				-3.215226411819458,
				-2.592895030975342,
				-1.5872139930725098
			],
			"type":"VEC3"
		},
		{
			"bufferView":21,
			"componentType":5126,
			"count":69033,
			"type":"VEC3"
		},
		{
			"bufferView":22,
			"componentType":5126,
			"count":69033,
			"type":"VEC2"
		},
		{
			"bufferView":23,
			"componentType":5125,
			"count":217134,
			"type":"SCALAR"
		},
		{
			"bufferView":24,
			"componentType":5126,
			"count":68927,
			"max":[
				2.9847140312194824,
				4.886299133300781,
				0.9977395534515381
			],
			"min":[
				-2.9847140312194824,
				-2.5616674423217773,
				-2.7149689197540283
			],
			"type":"VEC3"
		},
		{
			"bufferView":25,
			"componentType":5126,
			"count":68927,
			"type":"VEC3"
		},
		{
			"bufferView":26,
			"componentType":5126,
			"count":68927,
			"type":"VEC2"
		},
		{
			"bufferView":27,
			"componentType":5125,
			"count":230673,
			"type":"SCALAR"
		},
		{
			"bufferView":28,
			"componentType":5126,
			"count":38731,
			"max":[
				2.407445192337036,
				4.951056480407715,
				1.255394458770752
			],
			"min":[
				-2.407445192337036,
				-1.8068746328353882,
				-0.7671676278114319
			],
			"type":"VEC3"
		},
		{
			"bufferView":29,
			"componentType":5126,
			"count":38731,
			"type":"VEC3"
		},
		{
			"bufferView":30,
			"componentType":5126,
			"count":38731,
			"type":"VEC2"
		},
		{
			"bufferView":31,
			"componentType":5123,
			"count":193311,
			"type":"SCALAR"
		}
	],
	"bufferViews":[
		{
			"buffer":0,
			"byteLength":718536,
			"byteOffset":0,
			"target":34962
		},
		{
			"buffer":0,
			"byteLength":718536,
			"byteOffset":718536,
			"target":34962
		},
		{
			"buffer":0,
			"byteLength":479024,
			"byteOffset":1437072,
			"target":34962
		},
		{
			"buffer":0,
			"byteLength":327384,
			"byteOffset":1916096,
			"target":34963
		},
		{
			"buffer":0,
			"byteLength":257880,
			"byteOffset":2243480,
			"target":34962
		},
		{
			"buffer":0,
			"byteLength":257880,
			"byteOffset":2501360,
			"target":34962
		},
		{
			"buffer":0,
			"byteLength":171920,
			"byteOffset":2759240,
			"target":34962
		},
		{
			"buffer":0,
			"byteLength":105888,
			"byteOffset":2931160,
			"target":34963
		},
		{
			"buffer":0,
			"byteLength":1994460,
			"byteOffset":3037048,
			"target":34962
		},
		{
			"buffer":0,
			"byteLength":1994460,
			"byteOffset":5031508,
			"target":34962
		},
		{
			"buffer":0,
			"byteLength":1329640,
			"byteOffset":7025968,
			"target":34962
		},
		{
			"buffer":0,
			"byteLength":1800144,
			"byteOffset":8355608,
			"target":34963
		},
		{
			"buffer":0,
			"byteLength":3989412,
			"byteOffset":10155752,
			"target":34962
		},
		{
			"buffer":0,
			"byteLength":3989412,
			"byteOffset":14145164,
			"target":34962
		},
		{
			"buffer":0,
			"byteLength":2659608,
			"byteOffset":18134576,
			"target":34962
		},
		{
			"buffer":0,
			"byteLength":3517860,
			"byteOffset":20794184,
			"target":34963
		},
		{
			"buffer":0,
			"byteLength":215724,
			"byteOffset":24312044,
			"target":34962
		},
		{
			"buffer":0,
			"byteLength":215724,
			"byteOffset":24527768,
			"target":34962
		},
		{
			"buffer":0,
			"byteLength":143816,
			"byteOffset":24743492,
			"target":34962
		},
		{
			"buffer":0,
			"byteLength":95994,
			"byteOffset":24887308,
			"target":34963
		},
		{
			"buffer":0,
			"byteLength":828396,
			"byteOffset":24983304,
			"target":34962
		},
		{
			"buffer":0,
			"byteLength":828396,
			"byteOffset":25811700,
			"target":34962
		},
		{
			"buffer":0,
			"byteLength":552264,
			"byteOffset":26640096,
			"target":34962
		},
		{
			"buffer":0,
			"byteLength":868536,
			"byteOffset":27192360,
			"target":34963
		},
		{
			"buffer":0,
			"byteLength":827124,
			"byteOffset":28060896,
			"target":34962
		},
		{
			"buffer":0,
			"byteLength":827124,
			"byteOffset":28888020,
			"target":34962
		},
		{
			"buffer":0,
			"byteLength":551416,
			"byteOffset":29715144,
			"target":34962
		},
		{
			"buffer":0,
			"byteLength":922692,
			"byteOffset":30266560,
			"target":34963
		},
		{
			"buffer":0,
			"byteLength":464772,
			"byteOffset":31189252,
			"target":34962
		},
		{
			"buffer":0,
			"byteLength":464772,
			"byteOffset":31654024,
			"target":34962
		},
		{
			"buffer":0,
			"byteLength":309848,
			"byteOffset":32118796,
			"target":34962
		},
		{
			"buffer":0,
			"byteLength":386622,
			"byteOffset":32428644,
			"target":34963
		}
	],
	"samplers":[
		{
			"magFilter":9729,
			"minFilter":9987
		}
	],
	"buffers":[
		{
			"byteLength":32815268,
			"uri":"spacehanger.bin"
		}
	]
}
